<?xml version="1.0" standalone="no"?>
<!DOCTYPE svg PUBLIC "-//W3C//DTD SVG 20010904//EN"
 "http://www.w3.org/TR/2001/REC-SVG-20010904/DTD/svg10.dtd">
<svg version="1.0" xmlns="http://www.w3.org/2000/svg"
 width="32.000000pt" height="32.000000pt" viewBox="0 0 32.000000 32.000000"
 preserveAspectRatio="xMidYMid meet">

<g transform="translate(0.000000,32.000000) scale(0.100000,-0.100000)"
fill="#000000" stroke="none">
<path d="M162 298 c-7 -7 -12 -18 -12 -25 0 -17 -6 -16 -41 4 -29 17 -30 17
-55 -8 l-26 -26 99 5 c55 2 115 0 137 -6 l39 -11 -24 25 c-15 16 -25 20 -30
13 -4 -7 -12 -3 -22 11 l-15 22 -7 -23 c-7 -22 -8 -22 -21 -4 -11 15 -11 20
-1 27 6 4 7 8 2 8 -6 0 -16 -5 -23 -12z"/>
<path d="M204 209 c-3 -5 6 -9 20 -9 31 0 34 6 6 13 -11 3 -23 1 -26 -4z"/>
<path d="M34 204 c-13 -6 -6 -62 10 -71 6 -3 8 -3 5 1 -4 4 -3 23 1 42 8 33 6
37 -16 28z"/>
<path d="M280 185 c0 -29 15 -41 24 -19 9 24 7 31 -9 38 -11 4 -15 -1 -15 -19z"/>
<path d="M65 169 c-4 -6 -5 -12 -2 -15 2 -3 7 2 10 11 7 17 1 20 -8 4z"/>
<path d="M113 155 c-11 -12 -8 -25 8 -25 10 0 20 28 11 34 -4 2 -12 -2 -19 -9z"/>
<path d="M196 145 c7 -17 20 -20 28 -6 3 5 -1 12 -10 15 -22 9 -24 8 -18 -9z"/>
<path d="M41 102 c-1 -8 8 -25 19 -39 11 -14 20 -21 20 -15 0 6 -5 14 -11 17
-6 4 -14 17 -19 29 -5 11 -9 15 -9 8z"/>
<path d="M170 80 c-13 -8 -13 -10 2 -10 9 0 20 5 23 10 8 13 -5 13 -25 0z"/>
<path d="M254 58 l-19 -23 23 19 c21 18 27 26 19 26 -2 0 -12 -10 -23 -22z"/>
<path d="M140 23 c0 -14 30 -15 70 -4 21 7 17 8 -22 12 -34 3 -48 0 -48 -8z"/>
</g>
</svg>
